<svg height="512" viewBox="0 0 135.46667 135.46667" width="512" xmlns="http://www.w3.org/2000/svg"><path d="m62.474609 76.585938c-7.47555 0-14.595784 1.246427-21.359375 3.738281-12.103266 4.271733-22.070817 11.925579-29.902343 22.960941-7.4755505 10.67935-11.212891 22.60418-11.212891 35.77539v233.8789c0 17.08697 6.0510264 31.85913 18.154297 44.31836 12.459246 12.10327 27.233346 18.15625 44.320312 18.15625 17.442947 0 32.215089-6.05298 44.318361-18.15625 12.45925-12.45923 18.68945-27.23139 18.68945-44.31836v-42.53125c.13441-9.21122 9.6225-6.79429 14.41797 0 8.98111 15.55395 28.02226 28.91242 50.19141 28.83594 22.16915-.07636 40.58194-11.03699 50.19336-28.83594 3.63981-4.29263 13.89902-11.60675 14.95117 0v42.53125c0 17.08697 6.05102 31.85913 18.15429 44.31836 12.45923 12.10327 27.23335 18.15625 44.32032 18.15625 17.44294 0 32.21509-6.05298 44.31836-18.15625 12.45923-12.45923 18.68945-27.23139 18.68945-44.31836v-233.8789c0-13.17121-3.9146-25.09604-11.74609-35.77539-7.47557-11.035362-17.26588-18.689208-29.36914-22.960941-7.11956-2.491854-14.23982-3.738281-21.35938-3.738281-19.22286 0-35.41865 7.476649-48.58984 22.427734-7.11957 8.187538-10.85888 12.103938-11.21485 11.748048 0 0-50.76358 61.38323-52.1875 62.45117-1.42391 1.06791-6.14093 9.23242-16.16015 9.23242-10.01923 0-14.20109-8.16451-15.625-9.23242-1.42392-1.06794-52.1875-62.45117-52.1875-62.45117-1.06794-.35597-4.98446-4.27249-11.74805-11.748048-12.815226-14.951085-28.833803-22.427734-48.056641-22.427734zm395.060551 0c-14.9511-.000001-27.76596 5.340179-38.44532 16.019531-10.32338 10.323381-15.48437 22.961011-15.48437 37.912111s5.16099 27.76596 15.48437 38.44531c10.67936 10.32338 23.49422 15.48633 38.44532 15.48633 14.95109 0 27.76596-5.16295 38.44531-15.48633 10.67935-10.67935 16.01953-23.49421 16.01953-38.44531s-5.34018-27.58873-16.01953-37.912111c-10.67935-10.679352-23.49422-16.019531-38.44531-16.019531zm.5332 118.541012c-14.9511 0-27.76596 5.34018-38.44531 16.01953-10.67936 10.67936-16.01758 23.49422-16.01758 38.44532v131.89062c0 14.9511 5.33822 27.76596 16.01758 38.44531 10.67935 10.32339 23.49421 15.48633 38.44531 15.48633s27.58873-5.16294 37.91211-15.48633c10.67935-10.67935 16.01953-23.49421 16.01953-38.44531v-131.89062c0-14.9511-5.34018-27.76596-16.01953-38.44532-10.32338-10.67935-22.96101-16.01953-37.91211-16.01953z" fill="#2fa2bb" transform="matrix(.26458333698 0 0 .26458333698 .00000068532 -.00000277419)"/></svg>