<svg height="365" viewBox="0 0 0 0 365 0 365" width="365" xmlns="http://www.w3.org/2000/svg" xmlns:xlink="http://www.w3.org/1999/xlink"><clipPath id="a"><path d="m20.122.03h324.757v364.94h-324.757z"/></clipPath><path d="m0 0h365v365h-365z" fill="none"/><g clip-path="url(#a)"><path d="m344.862 107.34c-.003-6.137-1.315-11.56-3.97-16.215-2.607-4.577-6.512-8.413-11.749-11.446-43.234-24.929-86.51-49.782-129.73-74.736-11.653-6.727-22.949-6.482-34.515.342-17.209 10.148-103.365 59.51-129.039 74.38-10.574 6.121-15.719 15.488-15.72 27.664-.017 50.133 0 100.266-.017 150.401.003 6.003 1.259 11.321 3.797 15.905 2.608 4.715 6.567 8.657 11.926 11.759 25.675 14.87 111.843 64.228 129.048 74.379 11.571 6.827 22.867 7.071 34.524.342 43.22-24.956 86.5-49.808 129.741-74.736 5.358-3.101 9.316-7.045 11.925-11.757 2.534-4.584 3.793-9.902 3.796-15.906 0 0 0-100.241-.017-150.376" fill="#8d4482"/><path d="m182.996 182.041-159.078 91.594c2.608 4.715 6.568 8.657 11.926 11.759 25.675 14.87 111.844 64.228 129.049 74.379 11.571 6.827 22.867 7.071 34.524.342 43.22-24.956 86.5-49.808 129.741-74.736 5.358-3.101 9.316-7.045 11.925-11.757z" fill="#5b2863"/></g><path d="m135.88 209.172c9.257 16.16 26.658 27.06 46.621 27.06 20.084 0 37.586-11.038 46.795-27.371l-46.299-26.82z" fill="#5b2863"/><path d="m344.862 107.34c-.003-6.137-1.315-11.56-3.97-16.215l-157.895 90.916 158.086 91.581c2.534-4.584 3.793-9.902 3.796-15.906 0 0 0-100.241-.017-150.376" fill="#732e71"/><g fill="#fffffe"><path d="m229.296 208.861c-9.209 16.333-26.711 27.371-46.795 27.371-19.963 0-37.364-10.9-46.621-27.06a53.434 53.434 0 0 1 -7.082-26.643c0-29.659 24.043-53.702 53.703-53.702 19.832 0 37.144 10.764 46.446 26.759l46.938-27.03c-18.657-32.206-53.489-53.873-93.384-53.873-59.564 0-107.848 48.285-107.848 107.846 0 19.54 5.199 37.864 14.284 53.67 18.61 32.376 53.542 54.177 93.564 54.177 40.095 0 75.081-21.888 93.664-54.36zm48.645-51.831h10.667v51.666h-10.667zm23.667 0h10.666v51.666h-10.666z"/><path d="m269.274 165.696h51.667v10.667h-51.667zm0 23.667h51.667v10.667h-51.667z"/></g></svg>