
<svg height="256" viewBox="0 0 256 256" width="256" xmlns="http://www.w3.org/2000/svg"><path d="m0 0h256v256h-256z" fill="none"/><path d="m76.514 19.39c-6.575.014-13.012 3.757-16.323 9.467l-51.485 89.677c-3.259 5.725-3.259 13.207 0 18.932l51.485 89.677c3.311 5.71 9.748 9.454 16.323 9.467h102.972c6.575-.014 13.012-3.757 16.323-9.467l51.485-89.677c3.259-5.725 3.259-13.207 0-18.932l-51.485-89.677c-3.311-5.71-9.748-9.454-16.323-9.467zm.935 52.463c.141-.014.29-.014.432 0h17.761c.786.016 1.548.471 1.941 1.156l30.129 53.835c.152.266.25.563.287.867.037-.305.135-.601.286-.867l30.057-53.835c.406-.705 1.204-1.163 2.014-1.156h17.761c1.572.014 2.75 2 2.013 3.396l-29.41 52.751 29.41 52.679c.807 1.404-.4 3.482-2.013 3.468h-17.761c-.824-.007-1.627-.496-2.014-1.228l-30.057-53.835c-.151-.266-.249-.563-.286-.867-.037.304-.135.601-.287.867l-30.129 53.835c-.375.711-1.141 1.196-1.941 1.228h-17.761c-1.614.014-2.82-2.064-2.014-3.468l29.41-52.679-29.41-52.751c-.705-1.274.156-3.125 1.582-3.396z" fill="#3498db"/></svg>